<svg width="58" height="50" viewBox="0 0 58 50" fill="none" xmlns="http://www.w3.org/2000/svg">
<path d="M29 49.5794C45.0163 49.5794 58 46.8079 58 43.3891C58 39.9702 45.0163 37.1987 29 37.1987C12.9837 37.1987 0 39.9702 0 43.3891C0 46.8079 12.9837 49.5794 29 49.5794Z" fill="#FAFAFA"/>
<path d="M33.2639 9.99902L9.93594 16.3635C9.47351 16.4896 9.43643 17.1312 9.88123 17.3098L26.5406 23.999L49.1273 18.1035C49.5839 17.9843 49.6364 17.3571 49.206 17.1637L33.2639 9.99902Z" fill="#FAFAFA" stroke="#E0E0E0"/>
<path d="M24.2975 4.69484C25.7779 5.25264 26.8448 8.08321 25.7779 9.45134L22.4067 10.9999C21.6665 10.2491 20.7123 8.2462 21.0824 6.52395C21.2746 5.62954 21.4884 5.19123 22.1983 4.7653C22.8554 4.37107 23.7889 4.5032 24.2975 4.69484Z" fill="white" stroke="#E0E0E0"/>
<path d="M35.2162 3.78468C33.7358 4.34248 32.6689 7.17306 33.7358 8.54119L37.107 10.0897C37.8472 9.33897 38.8014 7.33604 38.4313 5.61379C38.2391 4.71939 38.0253 4.28107 37.3153 3.85514C36.6583 3.46091 35.7248 3.59304 35.2162 3.78468Z" fill="white" stroke="#E0E0E0"/>
<mask id="path-5-inside-1_990_11491" fill="white">
<path fill-rule="evenodd" clip-rule="evenodd" d="M42.5449 17.5308C42.5432 17.4907 42.5411 17.4504 42.5387 17.4099C42.3461 14.2156 40.8848 9.80379 37.5252 7.09156C35.6005 5.42908 33.0395 4.3785 29.6986 4.65434C26.3456 4.78127 23.9278 6.13333 22.2162 8.01686C19.2086 11.1131 18.2885 15.6671 18.4811 18.8607C18.4835 18.9011 18.4863 18.9414 18.4894 18.9814C18.515 19.5938 18.6444 20.1629 18.8655 20.688C20.262 24.3125 25.1708 25.5541 30.934 25.2065C30.9736 25.2042 31.0131 25.2017 31.0526 25.1991C36.7632 24.8346 41.4308 23.0119 42.3762 19.2717C42.533 18.7234 42.5931 18.1424 42.5449 17.5308Z"/>
</mask>
<path fill-rule="evenodd" clip-rule="evenodd" d="M42.5449 17.5308C42.5432 17.4907 42.5411 17.4504 42.5387 17.4099C42.3461 14.2156 40.8848 9.80379 37.5252 7.09156C35.6005 5.42908 33.0395 4.3785 29.6986 4.65434C26.3456 4.78127 23.9278 6.13333 22.2162 8.01686C19.2086 11.1131 18.2885 15.6671 18.4811 18.8607C18.4835 18.9011 18.4863 18.9414 18.4894 18.9814C18.515 19.5938 18.6444 20.1629 18.8655 20.688C20.262 24.3125 25.1708 25.5541 30.934 25.2065C30.9736 25.2042 31.0131 25.2017 31.0526 25.1991C36.7632 24.8346 41.4308 23.0119 42.3762 19.2717C42.533 18.7234 42.5931 18.1424 42.5449 17.5308Z" fill="white"/>
<path d="M42.5387 17.4099L43.5369 17.3497L43.5369 17.3497L42.5387 17.4099ZM42.5449 17.5308L41.5459 17.5738L41.5466 17.5916L41.548 17.6094L42.5449 17.5308ZM37.5252 7.09156L36.8715 7.84832L36.8841 7.8592L36.897 7.86964L37.5252 7.09156ZM29.6986 4.65434L29.7364 5.65362L29.7587 5.65278L29.7809 5.65095L29.6986 4.65434ZM22.2162 8.01686L22.9335 8.71363L22.9451 8.7017L22.9563 8.68938L22.2162 8.01686ZM18.4811 18.8607L17.4829 18.9209L18.4811 18.8607ZM18.4894 18.9814L19.4885 18.9396L19.4878 18.9217L19.4864 18.904L18.4894 18.9814ZM18.8655 20.688L19.7987 20.3284L19.7931 20.3141L19.7871 20.2999L18.8655 20.688ZM31.0526 25.1991L30.9889 24.2011L30.9878 24.2012L31.0526 25.1991ZM42.3762 19.2717L41.4148 18.9968L41.4105 19.0117L41.4067 19.0266L42.3762 19.2717ZM41.5405 17.4701C41.5426 17.5049 41.5444 17.5394 41.5459 17.5738L43.544 17.4879C43.5421 17.442 43.5397 17.3959 43.5369 17.3497L41.5405 17.4701ZM36.897 7.86964C39.9727 10.3527 41.359 14.4604 41.5405 17.4701L43.5369 17.3497C43.3331 13.9708 41.7968 9.2549 38.1533 6.31347L36.897 7.86964ZM38.1788 6.33479C36.0609 4.50532 33.2375 3.35875 29.6163 3.65773L29.7809 5.65095C32.8416 5.39825 35.1402 6.35285 36.8715 7.84832L38.1788 6.33479ZM22.9563 8.68938C24.496 6.99503 26.6647 5.76991 29.7364 5.65362L29.6608 3.65505C26.0266 3.79264 23.3597 5.27163 21.4761 7.34434L22.9563 8.68938ZM21.4989 7.3201C18.2372 10.6779 17.2792 15.5428 17.4829 18.9209L19.4793 18.8005C19.2978 15.7915 20.18 11.5483 22.9335 8.71363L21.4989 7.3201ZM17.4829 18.9209C17.4857 18.967 17.4888 19.013 17.4924 19.0588L19.4864 18.904C19.4837 18.8697 19.4814 18.8352 19.4793 18.8005L17.4829 18.9209ZM19.7871 20.2999C19.6131 19.8867 19.5093 19.435 19.4885 18.9396L17.4903 19.0232C17.5208 19.7525 17.6756 20.439 17.9439 21.0761L19.7871 20.2999ZM17.9324 21.0475C18.7723 23.2274 20.6451 24.6048 22.941 25.3838C25.2296 26.1603 28.0393 26.3829 30.9942 26.2047L30.8738 24.2084C28.0655 24.3777 25.5393 24.1534 23.5835 23.4898C21.6351 22.8288 20.3553 21.7731 19.7987 20.3284L17.9324 21.0475ZM30.9942 26.2047C31.0353 26.2023 31.0763 26.1997 31.1174 26.197L30.9878 24.2012C30.9499 24.2037 30.9119 24.2061 30.8738 24.2084L30.9942 26.2047ZM41.4067 19.0266C41.0298 20.5176 39.8986 21.7128 38.0652 22.6014C36.2245 23.4935 33.7708 24.0236 30.9889 24.2011L31.1163 26.1971C34.045 26.0101 36.7804 25.4466 38.9375 24.4012C41.1019 23.3522 42.7772 21.766 43.3457 19.5167L41.4067 19.0266ZM43.3377 19.5465C43.5279 18.8813 43.5992 18.1806 43.5419 17.4523L41.548 17.6094C41.587 18.1042 41.5381 18.5654 41.4148 18.9968L43.3377 19.5465Z" fill="#E0E0E0" mask="url(#path-5-inside-1_990_11491)"/>
<ellipse cx="21.5982" cy="19.5977" rx="2.27602" ry="1.30058" transform="rotate(-3.45082 21.5982 19.5977)" fill="#F4F4F4"/>
<ellipse cx="2.27602" cy="1.30058" rx="2.27602" ry="1.30058" transform="matrix(-0.974459 0.224564 0.224564 0.974459 43.8887 15.7603)" fill="#F4F4F4"/>
<circle cx="26.0809" cy="15.0666" r="1.84249" transform="rotate(-3.45082 26.0809 15.0666)" fill="#E0E0E0"/>
<circle cx="26.6121" cy="14.6075" r="0.650291" transform="rotate(-3.45082 26.6121 14.6075)" fill="white"/>
<circle cx="25.4848" cy="15.971" r="0.325146" transform="rotate(-3.45082 25.4848 15.971)" fill="white"/>
<circle cx="37.7645" cy="14.362" r="1.84249" transform="rotate(-3.45082 37.7645 14.362)" fill="#E0E0E0"/>
<circle cx="38.2937" cy="13.9029" r="0.650291" transform="rotate(-3.45082 38.2937 13.9029)" fill="white"/>
<circle cx="37.1683" cy="15.2669" r="0.325146" transform="rotate(-3.45082 37.1683 15.2669)" fill="white"/>
<ellipse cx="32.3087" cy="16.6698" rx="1.51282" ry="1.23036" transform="rotate(-3.45082 32.3087 16.6698)" fill="#E0E0E0"/>
<mask id="mask0_990_11491" style="mask-type:alpha" maskUnits="userSpaceOnUse" x="28" y="19" width="8" height="4">
<path d="M28.8401 21.0038C29.1929 20.5749 29.549 20.2953 30.0249 20.0923C30.5162 19.8826 31.1577 19.7447 32.1 19.6404C33.021 19.5386 33.5501 19.5974 33.9102 19.7125C34.2573 19.8235 34.4861 19.9957 34.8185 20.246C34.8296 20.2544 34.8408 20.2628 34.8521 20.2713C35.02 20.3977 35.1717 20.6012 35.2384 20.787C35.2708 20.8773 35.274 20.938 35.2703 20.9682C35.2681 20.9866 35.2652 20.9882 35.2637 20.989C35.2635 20.9891 35.2633 20.9892 35.2632 20.9893C34.8844 21.3249 34.6341 21.5424 34.2159 21.7233C33.7851 21.9096 33.148 22.067 32.0018 22.1938C30.8548 22.3207 30.2398 22.3016 29.8387 22.2257C29.513 22.164 29.319 22.0665 29.0343 21.9233C28.9772 21.8947 28.9166 21.8642 28.8504 21.8317C28.7416 21.7784 28.657 21.6792 28.6311 21.5668C28.609 21.4712 28.6107 21.2826 28.8401 21.0038Z" fill="#FD7477" stroke="#666666"/>
</mask>
<g mask="url(#mask0_990_11491)">
<path d="M31.2438 19.4706L31.0537 18.6566C31.0373 18.5863 31.1139 18.545 31.1837 18.5631C31.3003 18.5935 31.4791 18.5924 31.6924 18.4731C32.0018 18.3001 32.1775 17.9936 32.2267 17.862L32.3581 20.041L32.0351 20.0605C31.6628 20.083 31.3286 19.8338 31.2438 19.4706Z" fill="white" stroke="#E0E0E0" stroke-width="0.5"/>
<path d="M33.4522 19.3375L33.543 18.5065C33.5509 18.4348 33.4699 18.403 33.4028 18.4294C33.2906 18.4735 33.113 18.4939 32.887 18.4012C32.559 18.2666 32.3477 17.9835 32.2831 17.8587L32.4145 20.0378L32.7374 20.0183C33.1097 19.9958 33.4116 19.7083 33.4522 19.3375Z" fill="white" stroke="#E0E0E0" stroke-width="0.5"/>
</g>
<path d="M31.421 18.7266C30.2561 19.2905 29.7431 20.4957 29.7177 20.5566C29.7081 20.5796 29.7032 20.6044 29.7031 20.6293C29.7031 20.6543 29.708 20.679 29.7175 20.7021C29.727 20.7252 29.741 20.7462 29.7587 20.7639C29.7763 20.7815 29.7972 20.7956 29.8203 20.8052C29.8434 20.8147 29.8681 20.8197 29.893 20.8197C29.918 20.8198 29.9428 20.8149 29.9658 20.8053C29.9889 20.7958 30.0099 20.7818 30.0276 20.7642C30.0453 20.7466 30.0593 20.7256 30.0689 20.7026C30.0756 20.6866 30.6789 19.416 32.19 19.1705C33.6941 18.926 34.9386 20.104 34.9503 20.119C34.9812 20.1584 35.0264 20.184 35.076 20.1903C35.1257 20.1966 35.1758 20.183 35.2155 20.1526C35.2553 20.1222 35.2814 20.0773 35.2882 20.0277C35.2951 19.9781 35.2821 19.9278 35.2522 19.8878C35.0034 19.5814 34.7147 19.3099 34.3937 19.0805C33.6826 18.5696 32.926 18.3613 32.2053 18.4785C31.9332 18.5227 31.669 18.6063 31.421 18.7266Z" fill="#E0E0E0" stroke="#E0E0E0" stroke-width="0.1"/>
<line x1="23.7287" y1="18.1659" x2="23.5991" y2="18.5272" stroke="#E0E0E0" stroke-width="0.7" stroke-linecap="round"/>
<line x1="24.9494" y1="18.31" x2="24.893" y2="18.4672" stroke="#E0E0E0" stroke-width="0.7" stroke-linecap="round"/>
<line x1="0.35" y1="-0.35" x2="0.733819" y2="-0.35" transform="matrix(0.44853 0.893768 0.893768 -0.44853 40.4297 15.9731)" stroke="#E0E0E0" stroke-width="0.7" stroke-linecap="round"/>
<line x1="0.35" y1="-0.35" x2="0.517055" y2="-0.35" transform="matrix(0.448552 0.893757 0.893757 -0.448552 39.2363 16.2622)" stroke="#E0E0E0" stroke-width="0.7" stroke-linecap="round"/>
<path d="M9 17.5027C9 17.1455 9.36388 16.9035 9.69336 17.0416L25 23.4605V46.2127L9 38.7176V17.5027Z" fill="#FBFBFB" stroke="#E0E0E0"/>
<path d="M8.74631 16.66L24.8561 23.8265L22.245 30.3166L6.15202 22.5625L8.74631 16.66Z" fill="white" stroke="#E0E0E0"/>
<path d="M50 18.2859C50 17.9597 49.6926 17.7208 49.3765 17.8014L25.5 23.8878V45.8708C25.5 46.2033 25.8185 46.4432 26.1381 46.3513L50 39.4934V18.2859Z" fill="#F4F4F4" stroke="#E0E0E0"/>
<path d="M50.0635 18.0495C49.9823 17.7978 49.719 17.6529 49.4628 17.719L26.1262 23.7393L28.0893 30.3834L51.865 23.6308L50.0635 18.0495Z" fill="white" stroke="#E0E0E0"/>
</svg>
