<svg xmlns="http://www.w3.org/2000/svg" xmlns:xlink="http://www.w3.org/1999/xlink" fill="none" version="1.1" width="91" height="91" viewBox="0 0 91 91"><defs><clipPath id="master_svg0_4_0"><rect x="0" y="0" width="91" height="91" rx="0"/></clipPath><linearGradient x1="0.08667882531881332" y1="0.2784137427806854" x2="0.9104295372962952" y2="0.8568426370620728" id="master_svg1_4_91"><stop offset="0%" stop-color="#FFC3A5" stop-opacity="1"/><stop offset="100%" stop-color="#DBFFF1" stop-opacity="1"/></linearGradient><linearGradient x1="0.5" y1="5.828670879282072e-16" x2="0.5" y2="1" id="master_svg2_4_97"><stop offset="6.678509712219238%" stop-color="#F48A58" stop-opacity="1"/><stop offset="100%" stop-color="#F9DFCC" stop-opacity="1"/></linearGradient><linearGradient x1="0.24987149238586426" y1="0.03939516469836235" x2="0.7501147389411926" y2="0.945658802986145" id="master_svg3_4_98"><stop offset="0.009999999747378752%" stop-color="#FFB17C" stop-opacity="1"/><stop offset="100%" stop-color="#FDBE92" stop-opacity="0.009999999776482582"/></linearGradient><linearGradient x1="0.5" y1="-1.5543122344752192e-15" x2="0.5" y2="1" id="master_svg4_4_000"><stop offset="0%" stop-color="#FFAE89" stop-opacity="1"/><stop offset="100%" stop-color="#FFAE89" stop-opacity="0"/></linearGradient><linearGradient x1="0.5" y1="-0.04554181918501854" x2="0.5" y2="0.9767422676086426" id="master_svg5_4_001"><stop offset="0%" stop-color="#FD8F53" stop-opacity="0.3799999952316284"/><stop offset="100%" stop-color="#FD9053" stop-opacity="1"/></linearGradient><linearGradient x1="0.14474722743034363" y1="0.21502728760242462" x2="0.509992241859436" y2="1.333171010017395" id="master_svg6_4_003"><stop offset="0%" stop-color="#CD690C" stop-opacity="1"/><stop offset="100%" stop-color="#CD690C" stop-opacity="0.25"/></linearGradient><linearGradient x1="0.17045354843139648" y1="0.29807865619659424" x2="0.8523555994033813" y2="0.3035038709640503" id="master_svg7_4_004"><stop offset="0%" stop-color="#FE854C" stop-opacity="1"/><stop offset="100%" stop-color="#FFAF82" stop-opacity="1"/></linearGradient><linearGradient x1="1.001975655555725" y1="0.3041834533214569" x2="0.011576882563531399" y2="0.7489834427833557" id="master_svg8_4_005"><stop offset="0%" stop-color="#FFA073" stop-opacity="1"/><stop offset="100%" stop-color="#FFF1DB" stop-opacity="1"/></linearGradient><linearGradient x1="0.1704525500535965" y1="0.29807373881340027" x2="0.8523800373077393" y2="0.3023672103881836" id="master_svg9_4_006"><stop offset="0%" stop-color="#FFBB95" stop-opacity="1"/><stop offset="96.34220004081726%" stop-color="#FF8D47" stop-opacity="1"/></linearGradient></defs><g clip-path="url(#master_svg0_4_0)"><g><path d="M4.5630598068237305,81.91340169677734L45.50265980682373,58.423301696777344L86.44215980682372,81.91340169677734L86.44215980682372,91.03950169677734L45.50255980682373,113.99600169677734L4.56313991542373,91.03960169677734L4.5630598068237305,81.91340169677734Z" fill="#DBFFF1" fill-opacity="1"/></g><g><path d="M4.928830146789551,82.56159973144531L46.258330146789554,105.43599973144532L46.258330146789554,114.2539997314453L4.928830146789551,91.37979973144532L4.928830146789551,82.56159973144531Z" fill="url(#master_svg1_4_91)" fill-opacity="1"/></g><g><path d="M87.06839923095703,82.56159973144531L45.73889923095703,105.43599973144532L45.73889923095703,114.2539997314453L87.06839923095703,91.37979973144532L87.06839923095703,82.56159973144531Z" fill="#F3D2BE" fill-opacity="1"/></g><g style="opacity:0.699999988079071;"><g transform="matrix(0,1,-1,0,27.180790424346924,18.354609966278076)"><line x1="4.413090229034424" y1="21.7677001953125" x2="46.31478929519653" y2="21.7677001953125" fill-opacity="0" stroke-opacity="0.20000000298023224" stroke="#F76526" fill="none" stroke-width="2" stroke-dasharray="3 3"/></g><g transform="matrix(0,1,-1,0,49.50547909736633,-40.351919412612915)"><line x1="44.928699254989624" y1="3.576779842376709" x2="77.00971961021423" y2="3.576779842376709" fill-opacity="0" stroke-opacity="0.20000000298023224" stroke="#F76526" fill="none" stroke-width="2" stroke-dasharray="3 3"/></g><g transform="matrix(0,1,-1,0,107.80390524864197,-62.26850485801697)"><line x1="85.03620505332947" y1="21.7677001953125" x2="126.93790411949158" y2="21.7677001953125" fill-opacity="0" stroke-opacity="0.20000000298023224" stroke="#F76526" fill="none" stroke-width="2" stroke-dasharray="3 3"/></g><g><path d="M45.358800719833376,0L41.655200719833374,3.70362L45.358800719833376,7.40725L49.06240071983338,3.70362L45.358800719833376,0ZM45.35870071983337,1.85181L43.506900719833375,3.70362L45.35870071983337,5.55543L47.21050071983338,3.70362L45.35870071983337,1.85181Z" fill-rule="evenodd" fill="#F76526" fill-opacity="1"/></g><g><path d="M86.12101012168884,20.433500289916992L82.41740012168884,24.137200289916994L86.12101012168884,27.84080028991699L89.82460012168885,24.137200289916994L86.12101012168884,20.433500289916992ZM86.12091012168884,22.285300289916993L84.26910012168884,24.137200289916994L86.12091012168884,25.989000289916994L87.97271012168885,24.137200289916994L86.12091012168884,22.285300289916993Z" fill-rule="evenodd" fill="#F76526" fill-opacity="1"/></g><g><path d="M4.843149943466186,20.433500289916992L1.1395299434661865,24.137200289916994L4.843149943466186,27.84080028991699L8.546769943466186,24.137200289916994L4.843149943466186,20.433500289916992ZM4.843089943466186,22.285300289916993L2.9912799434661865,24.137200289916994L4.843089943466186,25.989000289916994L6.694899943466186,24.137200289916994L4.843089943466186,22.285300289916993Z" fill-rule="evenodd" fill="#F76526" fill-opacity="1"/></g></g><g><path d="M86.42225011520385,83.2302004196167L86.42225011520385,38.2186004196167L45.502650115203856,15.4350004196167L4.582950115203857,38.2186004196167L4.582950115203857,83.2302004196167L45.502650115203856,105.4580004196167L86.42225011520385,83.2302004196167Z" fill="#FFE4DB" fill-opacity="1"/></g><g><path d="M45.502650115203856,15.435020423217773L4.839717115203857,38.07569942321777L4.582950115203857,38.218599423217775L4.582950115203857,83.23019942321777L45.502650115203856,105.45799942321777L86.42225011520385,83.23019942321777L86.42225011520385,38.218599423217775L45.502650115203856,15.435020423217773ZM5.582950115203857,38.80639942321777L5.582950115203857,82.63539942321778L45.502650115203856,104.31999942321778L85.42225011520385,82.63539942321778L85.42225011520385,38.80639942321777L45.502650115203856,16.579578423217775L5.582950115203857,38.80639942321777Z" fill-rule="evenodd" fill="#F56337" fill-opacity="0.30000001192092896"/></g><g><path d="M86.5514,38.7513L46,16L46,60.6433L86.5514,82.3717L86.5514,38.7513Z" fill="url(#master_svg2_4_97)" fill-opacity="0.10000000149011612"/></g><g style="opacity:0.6000000238418579;"><path d="M5.217830181121826,82.56220067749024L45.50263018112182,60.282100677490234L87.09703018112182,82.56220067749024L87.09703018112182,82.52230067749024L46.157430181121825,105.47800067749023L5.217830181121826,82.56220067749024Z" fill="url(#master_svg3_4_98)" fill-opacity="1"/></g><g><rect x="44.47909927368164" y="15.84689998626709" width="2.0459799766540527" height="2.0459799766540527" rx="1.0229899883270264" fill="#F56337" fill-opacity="1"/></g><g><rect x="4.582950115203857" y="37.942100524902344" width="2.0459799766540527" height="2.0459799766540527" rx="1.0229899883270264" fill="#F56337" fill-opacity="1"/></g><g><rect x="4.582950115203857" y="80.90750122070312" width="2.0459799766540527" height="2.0459799766540527" rx="1.0229899883270264" fill="#F56337" fill-opacity="1"/></g><g><rect x="84.37580108642578" y="37.942100524902344" width="2.0459799766540527" height="2.0459799766540527" rx="1.0229899883270264" fill="#F56337" fill-opacity="1"/></g><g><rect x="84.37580108642578" y="80.90750122070312" width="2.0459799766540527" height="2.0459799766540527" rx="1.0229899883270264" fill="#F56337" fill-opacity="1"/></g><g><path d="M15.77280044555664,44.9007L45.41020044555664,31L74.26080044555664,44.9007L45.41020044555664,60.899699999999996L15.77280044555664,44.9007Z" fill="url(#master_svg4_4_000)" fill-opacity="1"/></g><g><path d="M30.46030044555664,45.43100009765625L45.07970044555664,38.60260009765625L59.31090044555664,45.43100009765625L45.07970044555664,53.29020009765625L30.46030044555664,45.43100009765625Z" fill="url(#master_svg5_4_001)" fill-opacity="1"/></g><g><path d="M15.77280044555664,76.37980122680665L15.77280044555664,44.90610122680664L45.41020044555664,60.90540122680664L45.41020044555664,95.00160122680664L15.77280044555664,76.37980122680665Z" fill="#FFD8BB" fill-opacity="1"/></g><g><path d="M28.91200076599121,58.764398541259766L21.32430076599121,54.73490154125977L21.324399948091212,54.022098541259766L29.54430076599121,58.448198541259764L30.492800765991213,61.057998541259764L35.39010076599121,63.94379854125977L35.39020076599121,64.70399854125976L29.90650076599121,61.58469854125977L28.91200076599121,58.764398541259766Z" fill-rule="evenodd" fill="url(#master_svg6_4_003)" fill-opacity="1"/></g><g><path d="M21.324499130249023,72.43249998168946L21.324499130249023,58.220899981689456L21.324499130249023,55.69169998168945L28.595899130249023,59.48549998168945L29.228199130249024,62.01469998168945L38.39659913024902,67.07299998168945L38.39659913024902,82.54769998168945L21.324499130249023,72.43249998168946Z" fill="url(#master_svg7_4_004)" fill-opacity="1"/></g><g><path d="M74.26079821166992,75.85490122680665L45.41019821166992,95.00120122680664L45.41019821166992,60.90500122680664L74.26079821166992,44.90610122680664L74.26079821166992,75.85490122680665Z" fill="url(#master_svg8_4_005)" fill-opacity="1"/></g><g><path d="M66.65460101928711,72.92490101318359L53.01620101928711,82.14720101318359L53.01620101928711,65.72390101318359L66.65460101928711,58.017601013183594L66.65460101928711,72.92490101318359Z" fill="url(#master_svg9_4_006)" fill-opacity="1"/></g></g></svg>
