<svg xmlns="http://www.w3.org/2000/svg" xmlns:xlink="http://www.w3.org/1999/xlink" fill="none" version="1.1" width="91" height="91" viewBox="0 0 91 91"><defs><clipPath id="master_svg0_4_51"><rect x="0" y="0" width="91" height="91" rx="0"/></clipPath><linearGradient x1="0.08667882531881332" y1="0.2784137427806854" x2="0.9104295372962952" y2="0.8568426370620728" id="master_svg1_4_109"><stop offset="0%" stop-color="#FFC3A5" stop-opacity="1"/><stop offset="100%" stop-color="#DBFFF1" stop-opacity="1"/></linearGradient><linearGradient x1="0.5" y1="5.828670879282072e-16" x2="0.5" y2="1" id="master_svg2_4_115"><stop offset="6.678509712219238%" stop-color="#F48A58" stop-opacity="1"/><stop offset="100%" stop-color="#F9DFCC" stop-opacity="1"/></linearGradient><linearGradient x1="0.24987243115901947" y1="0.03939516469836235" x2="0.7501146197319031" y2="0.945658802986145" id="master_svg3_4_116"><stop offset="0.009999999747378752%" stop-color="#FFB17C" stop-opacity="1"/><stop offset="100%" stop-color="#FDBE92" stop-opacity="0.009999999776482582"/></linearGradient><linearGradient x1="0.5" y1="6.661338147750939e-16" x2="0.5" y2="2.4666616916656494" id="master_svg4_4_118"><stop offset="0%" stop-color="#FFCDC0" stop-opacity="1"/><stop offset="100%" stop-color="#FFBAA8" stop-opacity="0"/></linearGradient><linearGradient x1="0.17045362293720245" y1="0.2980760335922241" x2="0.8523902893066406" y2="0.3017108738422394" id="master_svg5_4_119"><stop offset="0%" stop-color="#FFB49A" stop-opacity="1"/><stop offset="96.34220004081726%" stop-color="#FF9165" stop-opacity="1"/></linearGradient><linearGradient x1="0.17045362293720245" y1="0.2980760335922241" x2="0.8523902893066406" y2="0.3017108738422394" id="master_svg6_4_120"><stop offset="0%" stop-color="#FFA68D" stop-opacity="1"/><stop offset="100%" stop-color="#FEBEA8" stop-opacity="1"/></linearGradient></defs><g clip-path="url(#master_svg0_4_51)"><g><path d="M4.5630598068237305,81.91340169677734L45.50265980682373,58.423301696777344L86.44215980682372,81.91340169677734L86.44215980682372,91.03950169677734L45.50255980682373,113.99600169677734L4.56313991542373,91.03960169677734L4.5630598068237305,81.91340169677734Z" fill="#DBFFF1" fill-opacity="1"/></g><g><path d="M4.928830146789551,82.56159973144531L46.258330146789554,105.43599973144532L46.258330146789554,114.2539997314453L4.928830146789551,91.37979973144532L4.928830146789551,82.56159973144531Z" fill="url(#master_svg1_4_109)" fill-opacity="1"/></g><g><path d="M87.06839923095703,82.56159973144531L45.73889923095703,105.43599973144532L45.73889923095703,114.2539997314453L87.06839923095703,91.37979973144532L87.06839923095703,82.56159973144531Z" fill="#F3D2BE" fill-opacity="1"/></g><g style="opacity:0.699999988079071;"><g transform="matrix(0,1,-1,0,27.180760264396667,18.354640126228333)"><line x1="4.4130600690841675" y1="21.7677001953125" x2="46.31475913524628" y2="21.7677001953125" fill-opacity="0" stroke-opacity="0.20000000298023224" stroke="#F76526" fill="none" stroke-width="2" stroke-dasharray="3 3"/></g><g transform="matrix(0,1,-1,0,49.50547969341278,-40.35192000865936)"><line x1="44.92869985103607" y1="3.576779842376709" x2="77.00972020626068" y2="3.576779842376709" fill-opacity="0" stroke-opacity="0.20000000298023224" stroke="#F76526" fill="none" stroke-width="2" stroke-dasharray="3 3"/></g><g transform="matrix(0,1,-1,0,107.80389821529388,-62.268497824668884)"><line x1="85.03619801998138" y1="21.7677001953125" x2="126.9378970861435" y2="21.7677001953125" fill-opacity="0" stroke-opacity="0.20000000298023224" stroke="#F76526" fill="none" stroke-width="2" stroke-dasharray="3 3"/></g><g><path d="M45.35880213375091,0L41.655102133750916,3.70362L45.35880213375091,7.40725L49.062402133750915,3.70362L45.35880213375091,0ZM45.35870213375092,1.85181L43.50690213375091,3.70362L45.35870213375092,5.55543L47.210502133750914,3.70362L45.35870213375092,1.85181Z" fill-rule="evenodd" fill="#F76526" fill-opacity="1"/></g><g><path d="M86.12100308834076,20.433500289916992L82.41739308834076,24.137200289916994L86.12100308834076,27.84080028991699L89.82459308834076,24.137200289916994L86.12100308834076,20.433500289916992ZM86.12090308834075,22.285300289916993L84.26909308834075,24.137200289916994L86.12090308834075,25.989000289916994L87.97270308834077,24.137200289916994L86.12090308834075,22.285300289916993Z" fill-rule="evenodd" fill="#F76526" fill-opacity="1"/></g><g><path d="M4.843120021934509,20.433500289916992L1.1395000219345093,24.137200289916994L4.843120021934509,27.84080028991699L8.546740021934509,24.137200289916994L4.843120021934509,20.433500289916992ZM4.843060021934509,22.285300289916993L2.9912500219345093,24.137200289916994L4.843060021934509,25.989000289916994L6.694870021934509,24.137200289916994L4.843060021934509,22.285300289916993Z" fill-rule="evenodd" fill="#F76526" fill-opacity="1"/></g></g><g><path d="M86.42225011520385,83.2302004196167L86.42225011520385,38.2186004196167L45.502650115203856,15.4350004196167L4.582950115203857,38.2186004196167L4.582950115203857,83.2302004196167L45.502650115203856,105.4580004196167L86.42225011520385,83.2302004196167Z" fill="#FFE4DB" fill-opacity="1"/></g><g><path d="M45.502650115203856,15.435020423217773L4.839717115203857,38.07569942321777L4.582950115203857,38.218599423217775L4.582950115203857,83.23019942321777L45.502650115203856,105.45799942321777L86.42225011520385,83.23019942321777L86.42225011520385,38.218599423217775L45.502650115203856,15.435020423217773ZM5.582950115203857,38.80639942321777L5.582950115203857,82.63539942321778L45.502650115203856,104.31999942321778L85.42225011520385,82.63539942321778L85.42225011520385,38.80639942321777L45.502650115203856,16.579578423217775L5.582950115203857,38.80639942321777Z" fill-rule="evenodd" fill="#F56337" fill-opacity="0.30000001192092896"/></g><g><path d="M86.5514,38.7513L46,16L46,60.6433L86.5514,82.3717L86.5514,38.7513Z" fill="url(#master_svg2_4_115)" fill-opacity="0.10000000149011612"/></g><g style="opacity:0.6000000238418579;"><path d="M5.217860221862793,82.56220067749024L45.50266022186279,60.282100677490234L87.09706022186279,82.56220067749024L87.09706022186279,82.52230067749024L46.15746022186279,105.47800067749023L5.217860221862793,82.56220067749024Z" fill="url(#master_svg3_4_116)" fill-opacity="1"/></g><g><rect x="44.479000091552734" y="15.84689998626709" width="2.0459799766540527" height="2.0459799766540527" rx="1.0229899883270264" fill="#F56337" fill-opacity="1"/></g><g><rect x="4.582950115203857" y="37.942100524902344" width="2.0459799766540527" height="2.0459799766540527" rx="1.0229899883270264" fill="#F56337" fill-opacity="1"/></g><g><rect x="4.582950115203857" y="80.90750122070312" width="2.0459799766540527" height="2.0459799766540527" rx="1.0229899883270264" fill="#F56337" fill-opacity="1"/></g><g><rect x="84.37580108642578" y="37.942100524902344" width="2.0459799766540527" height="2.0459799766540527" rx="1.0229899883270264" fill="#F56337" fill-opacity="1"/></g><g><rect x="84.37580108642578" y="80.90750122070312" width="2.0459799766540527" height="2.0459799766540527" rx="1.0229899883270264" fill="#F56337" fill-opacity="1"/></g><g><path d="M45.558,32L70.116,44.1289L45.558,56.0564L21,44.1289L45.558,32Z" fill="url(#master_svg4_4_118)" fill-opacity="1"/></g><g><path d="M70.11589947509765,44.13240051269531L45.557899475097656,56.05980051269531L45.557899475097656,91.34250051269531L70.11589947509765,79.41500051269531L70.11589947509765,44.13240051269531Z" fill="url(#master_svg5_4_119)" fill-opacity="1"/></g><g><path d="M45.558,56.05980051269531L21,44.13240051269531L21,79.41500051269531L45.558,91.34250051269531L45.558,56.05980051269531Z" fill="url(#master_svg6_4_120)" fill-opacity="1"/></g><g><path d="M49.06570053100586,59.676698992919924L67.50890053100586,50.85599899291992L67.50890053100586,53.261698992919925L49.06570053100586,62.082298992919924L49.06570053100586,59.676698992919924Z" fill="#FFE7D0" fill-opacity="1"/></g><g><path d="M49.065799713134766,70.89840075073242L67.50899971313477,62.07780075073242L67.50899971313477,64.48340075073243L49.065799713134766,73.30410075073242L49.065799713134766,70.89840075073242Z" fill="#FFE7D0" fill-opacity="1"/></g><g><path d="M49.065799713134766,82.13259645996094L67.50899971313477,73.31199645996094L67.50899971313477,75.71759645996094L49.065799713134766,84.53829645996093L49.065799713134766,82.13259645996094Z" fill="#FFE7D0" fill-opacity="1"/></g><g transform="matrix(0.8728811740875244,-0.48793280124664307,0.48793280124664307,0.8728811740875244,-22.311528234612524,17.59035893112332)"><ellipse cx="24.207409143447876" cy="53.62016320228577" rx="1.603760004043579" ry="2.004699945449829" fill="#FFE7D0" fill-opacity="1"/></g><g transform="matrix(0.8728811740875244,-0.48793280124664307,0.48793280124664307,0.8728811740875244,-27.786963145806567,19.016848102363383)"><ellipse cx="24.207409143447876" cy="64.8418619632721" rx="1.603760004043579" ry="2.004699945449829" fill="#FFE7D0" fill-opacity="1"/></g><g transform="matrix(0.8728811740875244,-0.48793280124664307,0.48793280124664307,0.8728811740875244,-33.26239805700061,20.443337273603447)"><ellipse cx="24.207409143447876" cy="76.06356072425842" rx="1.603760004043579" ry="2.004699945449829" fill="#FFE7D0" fill-opacity="1"/></g></g></svg>
