<svg width="18" height="15" viewBox="0 0 18 15" fill="none" xmlns="http://www.w3.org/2000/svg">
<path d="M0 1.12521V13.5413C0 14.2184 0.476821 14.6666 1.20199 14.6666H16.798C17.5132 14.6666 18 14.2184 18 13.5413V1.12521C18 0.44814 17.5232 -6.10352e-05 16.798 -6.10352e-05H1.20199C0.486755 -6.10352e-05 0 0.44814 0 1.12521ZM1.20199 1.12521H16.798V4.51056H1.20199V1.12521ZM16.798 13.5413H1.20199V10.156H16.798V13.5413ZM1.20199 9.03071V5.63583H16.798V9.02118L1.20199 9.03071ZM13.798 2.25048H15C15.3576 2.25048 15.596 2.47935 15.596 2.81312C15.596 3.15642 15.3576 3.37575 15 3.37575H13.798C13.4404 3.37575 13.202 3.14688 13.202 2.81312C13.202 2.47935 13.4404 2.25048 13.798 2.25048ZM15.596 7.33327C15.596 7.67657 15.3576 7.89591 15 7.89591H13.798C13.4404 7.89591 13.202 7.66704 13.202 7.33327C13.202 6.9995 13.4404 6.77064 13.798 6.77064H15C15.3576 6.77064 15.596 6.98997 15.596 7.33327ZM13.202 11.8439C13.202 11.5006 13.4404 11.2813 13.798 11.2813H15C15.3576 11.2813 15.596 11.5101 15.596 11.8439C15.596 12.1872 15.3576 12.4065 15 12.4065H13.798C13.4404 12.4161 13.202 12.1872 13.202 11.8439Z" fill="#F84914"/>
</svg>
